<?xml version="1.0" standalone="no"?>
<!DOCTYPE svg PUBLIC "-//W3C//DTD SVG 20010904//EN"
 "http://www.w3.org/TR/2001/REC-SVG-20010904/DTD/svg10.dtd">
<svg version="1.0" xmlns="http://www.w3.org/2000/svg"
 width="1024.000000pt" height="1024.000000pt" viewBox="0 0 1024.000000 1024.000000"
 preserveAspectRatio="xMidYMid meet">
<metadata>
Created by potrace 1.14, written by Peter Selinger 2001-2017
</metadata>
<g transform="translate(0.000000,1024.000000) scale(0.100000,-0.100000)"
fill="#000000" stroke="none">
<path d="M7288 9345 c-2 -2 -61 -6 -133 -9 -403 -21 -762 -85 -1145 -203 -116
-36 -292 -99 -365 -132 -22 -10 -65 -29 -95 -42 -77 -33 -293 -144 -365 -187
-660 -393 -1138 -936 -1428 -1622 -69 -164 -162 -460 -192 -615 -29 -151 -51
-287 -61 -390 -3 -33 -8 -71 -11 -85 -9 -44 -10 -572 -2 -650 4 -41 11 -100
14 -130 10 -92 17 -145 20 -150 2 -3 7 -33 10 -65 4 -33 9 -63 11 -66 2 -3 6
-20 9 -38 5 -28 39 -175 50 -221 81 -306 211 -614 378 -890 193 -320 440 -603
737 -845 25 -20 54 -44 65 -53 53 -44 333 -224 435 -279 332 -180 801 -343
1140 -397 19 -3 46 -8 60 -10 73 -14 224 -36 285 -41 39 -4 81 -8 94 -10 144
-23 803 -23 961 0 14 2 65 7 114 10 49 4 96 8 105 10 9 1 43 6 76 9 33 4 71 9
85 11 14 2 45 6 70 10 53 6 117 16 144 21 11 2 56 8 100 15 44 6 83 12 86 14
3 2 26 6 50 10 25 4 133 24 241 45 107 22 206 41 220 43 148 28 150 29 174 77
26 51 116 265 150 355 155 413 259 709 330 935 20 63 47 147 59 186 l22 71
-158 53 c-87 29 -159 51 -161 49 -2 -2 -22 -42 -46 -89 -56 -108 -189 -340
-207 -361 -8 -8 -14 -19 -14 -23 0 -13 -145 -219 -226 -320 -78 -96 -194 -220
-279 -296 -206 -185 -496 -331 -785 -396 -19 -4 -37 -8 -40 -9 -15 -3 -110
-19 -180 -30 -161 -24 -530 -24 -710 0 -19 2 -55 7 -80 10 -58 7 -241 43 -305
60 -211 56 -485 169 -630 259 -312 196 -519 382 -720 651 -130 173 -264 407
-344 600 -19 44 -39 94 -46 110 -62 142 -172 538 -201 719 -3 21 -7 48 -10 60
-6 30 -33 232 -39 291 -11 113 -15 155 -20 265 -11 207 -6 602 10 710 2 14 6
54 10 90 3 36 8 76 10 90 2 14 7 45 10 70 31 229 116 546 210 785 70 178 212
439 312 575 65 88 79 105 145 181 315 360 713 603 1184 723 122 31 139 35 274
55 119 19 136 21 233 28 167 12 512 6 617 -11 14 -3 52 -7 85 -11 32 -4 62 -8
65 -10 3 -2 28 -6 56 -9 28 -3 57 -8 65 -10 8 -3 25 -7 39 -10 164 -28 347
-91 545 -187 188 -91 382 -267 514 -464 121 -181 240 -442 326 -717 20 -65 42
-118 48 -118 7 0 28 5 47 10 19 6 49 13 65 16 17 2 38 7 47 10 9 3 27 7 40 9
91 17 119 28 114 44 -4 13 -42 266 -62 411 -2 19 -6 49 -9 65 -2 17 -7 53 -10
80 -3 28 -8 65 -10 82 -3 18 -8 57 -11 85 -3 29 -8 64 -10 78 -2 14 -7 50 -9
80 -3 30 -7 66 -10 80 -2 14 -7 52 -10 85 -3 33 -8 74 -10 90 -3 26 -8 72 -30
295 -3 25 -7 74 -11 110 -3 36 -9 68 -12 71 -4 3 -41 12 -82 18 -41 7 -129 24
-195 36 -66 13 -136 26 -155 29 -19 3 -69 12 -110 20 -41 8 -93 17 -115 20
-23 4 -52 9 -65 11 -14 3 -88 14 -165 25 -77 12 -151 23 -165 25 -14 2 -56 7
-95 11 -38 3 -78 8 -87 10 -9 1 -54 6 -100 9 -46 4 -99 8 -118 10 -127 13
-702 28 -712 20z"/>
<path d="M659 9193 c-4 -28 -4 -285 1 -288 3 -1 34 -6 70 -9 36 -4 79 -8 95
-10 17 -3 51 -7 77 -10 56 -7 163 -24 198 -32 14 -3 38 -8 54 -10 48 -9 168
-54 211 -79 155 -91 220 -247 241 -579 8 -109 7 -4449 0 -4701 -7 -237 -14
-415 -21 -505 -18 -246 -30 -368 -45 -460 -5 -30 -12 -73 -15 -95 -27 -189
-93 -423 -167 -585 -16 -36 -34 -74 -40 -85 -122 -217 -201 -323 -352 -468
-106 -104 -254 -214 -381 -285 -142 -80 -134 -63 -80 -165 25 -48 63 -118 83
-156 l37 -68 120 56 c165 78 308 154 405 215 518 325 919 773 1104 1231 16 39
34 84 41 100 55 128 146 497 170 690 3 28 7 59 9 70 2 11 7 54 11 95 4 41 8
86 11 100 2 14 6 70 9 125 4 55 9 118 12 140 3 22 8 785 9 1695 5 2233 10
3146 18 3200 35 234 91 348 211 425 49 31 142 70 187 79 13 2 41 9 63 14 22 6
60 14 85 17 24 4 47 8 50 10 3 2 37 7 75 10 39 4 72 8 75 10 3 2 34 6 70 10
36 4 67 8 69 11 2 2 5 69 5 149 l1 145 -1387 0 c-764 0 -1389 -3 -1389 -7z"/>
</g>
</svg>
