<?xml version="1.0" standalone="no"?>
<!DOCTYPE svg PUBLIC "-//W3C//DTD SVG 20010904//EN"
 "http://www.w3.org/TR/2001/REC-SVG-20010904/DTD/svg10.dtd">
<svg version="1.0" xmlns="http://www.w3.org/2000/svg"
 width="700.000000pt" height="700.000000pt" viewBox="0 0 700.000000 700.000000"
 preserveAspectRatio="xMidYMid meet">
<metadata>
Created by potrace 1.14, written by Peter Selinger 2001-2017
</metadata>
<g transform="translate(0.000000,700.000000) scale(0.100000,-0.100000)"
fill="#000000" stroke="none">
<path d="M4647 5374 c-1 -1 -40 -4 -87 -8 -135 -11 -203 -20 -325 -47 -685
-152 -1180 -631 -1304 -1262 -30 -154 -33 -179 -36 -342 -9 -470 159 -897 471
-1196 58 -55 93 -84 189 -157 155 -117 476 -244 700 -277 22 -4 47 -8 55 -10
102 -26 584 -26 721 0 13 3 44 7 69 10 25 3 56 7 70 10 37 7 77 14 150 25 55
9 117 22 216 45 23 5 60 83 128 270 20 55 43 116 51 135 19 49 105 316 105
328 0 10 -111 52 -135 52 -7 0 -17 -12 -24 -27 -25 -55 -127 -219 -182 -293
-180 -243 -384 -362 -659 -385 -217 -19 -406 4 -592 70 -317 113 -575 385
-707 744 -28 73 -76 253 -85 316 -2 17 -7 49 -11 72 -13 82 -16 130 -19 303
-2 97 0 202 5 235 4 33 10 85 14 115 22 192 111 430 223 600 182 275 458 437
827 485 71 9 278 7 355 -5 174 -25 230 -41 355 -100 187 -90 302 -238 396
-510 18 -52 34 -97 35 -99 1 -1 36 5 77 14 l74 18 -8 36 c-4 20 -10 59 -13 86
-4 28 -8 61 -11 75 -2 14 -7 48 -10 75 -3 28 -10 86 -15 130 -5 44 -12 105
-15 135 -25 236 -23 226 -53 228 -15 1 -38 4 -52 7 -14 3 -61 12 -105 20 -44
8 -91 17 -105 20 -83 17 -277 42 -395 51 -77 5 -333 12 -338 8z"/>
<path d="M1583 5293 c-3 -7 -6 -37 -7 -67 l-1 -54 40 -7 c22 -3 60 -9 85 -11
220 -24 298 -93 316 -280 9 -99 9 -2137 0 -2334 -9 -195 -16 -271 -36 -395
-15 -92 -17 -100 -45 -181 -46 -134 -117 -247 -213 -340 -45 -43 -216 -164
-233 -164 -5 0 4 -21 19 -48 15 -26 33 -59 41 -73 l13 -27 56 25 c305 135 565
377 688 641 56 122 104 303 119 452 4 36 9 76 12 90 4 14 8 423 10 910 4 1110
8 1488 16 1521 32 129 106 178 303 204 27 3 58 8 69 10 11 2 23 4 28 4 4 1 7
32 7 69 l0 68 -641 0 c-519 0 -642 -2 -646 -13z"/>
</g>
</svg>
